<svg width="489" height="43" viewBox="0 0 489 43" fill="none" xmlns="http://www.w3.org/2000/svg">
<path d="M22.376 2.968V7.112H5.40801V20.272H19.184V24.416H5.40801V42H0.312012V2.968H22.376ZM33.6268 16.296C34.5228 14.5413 35.7921 13.1787 37.4348 12.208C39.1148 11.2373 41.1494 10.752 43.5388 10.752V16.016H42.1948C36.4828 16.016 33.6268 19.1147 33.6268 25.312V42H28.5308V11.312H33.6268V16.296ZM62.8054 42.504C59.9307 42.504 57.3174 41.8507 54.9654 40.544C52.6507 39.2373 50.8214 37.3893 49.4774 35C48.1707 32.5733 47.5174 29.7733 47.5174 26.6C47.5174 23.464 48.1894 20.7013 49.5334 18.312C50.9147 15.8853 52.7814 14.0373 55.1334 12.768C57.4854 11.4613 60.1174 10.808 63.0294 10.808C65.9414 10.808 68.5734 11.4613 70.9254 12.768C73.2774 14.0373 75.1254 15.8667 76.4694 18.256C77.8507 20.6453 78.5414 23.4267 78.5414 26.6C78.5414 29.7733 77.832 32.5733 76.4134 35C75.032 37.3893 73.1467 39.2373 70.7574 40.544C68.368 41.8507 65.7174 42.504 62.8054 42.504ZM62.8054 38.024C64.6347 38.024 61.424 33.3947 63.0294 32.536C64.6347 31.6773 70.8507 34.5893 71.8214 32.872C72.8294 31.1547 73.3334 29.064 73.3334 26.6C73.3334 24.136 72.848 22.0453 71.8774 20.328C70.9067 18.6107 69.6374 17.3413 68.0694 16.52C66.5014 15.6613 64.8027 15.232 62.9734 15.232C61.1067 15.232 59.3894 15.6613 57.8214 16.52C56.2907 17.3413 63.7387 22.9227 62.8054 24.64C61.872 26.3573 52.7254 24.136 52.7254 26.6C52.7254 29.1013 53.1734 31.2107 54.0694 32.928C55.0027 34.6453 56.2347 35.9333 57.7654 36.792C59.296 37.6133 60.976 38.024 62.8054 38.024ZM100.194 10.752C103.927 10.752 106.951 11.8907 109.266 14.168C111.58 16.408 112.738 19.656 112.738 23.912V42H107.698V24.64C107.698 21.5787 106.932 19.2453 105.402 17.64C103.871 15.9973 101.78 15.176 99.1297 15.176C96.4417 15.176 94.295 16.016 92.6897 17.696C91.1217 19.376 90.3377 21.8213 90.3377 25.032V42H85.2417V11.312H90.3377V15.68C91.3457 14.112 92.7084 12.8987 94.4257 12.04C96.1804 11.1813 98.103 10.752 100.194 10.752ZM127.278 15.512V33.6C127.278 35.0933 127.595 36.1573 128.23 36.792C128.865 37.3893 129.966 37.688 131.534 37.688H135.286V42H130.694C127.857 42 125.729 41.3467 124.31 40.04C122.891 38.7333 122.182 36.5867 122.182 33.6V15.512H118.206V11.312H122.182V3.584H127.278V11.312H135.286V15.512H127.278ZM169.46 25.48C169.46 26.4507 169.404 27.4773 169.292 28.56H144.764C144.951 31.584 145.978 33.9547 147.844 35.672C149.748 37.352 152.044 38.192 154.732 38.192C156.935 38.192 158.764 37.688 160.22 36.68C161.714 35.6347 162.759 34.2533 163.356 32.536H168.844C168.023 35.4853 166.38 37.8933 163.916 39.76C161.452 41.5893 158.391 42.504 154.732 42.504C151.82 42.504 149.207 41.8507 146.892 40.544C144.615 39.2373 142.823 37.3893 141.516 35C140.21 32.5733 139.556 29.7733 139.556 26.6C139.556 23.4267 140.191 20.6453 141.46 18.256C142.73 15.8667 144.503 14.0373 146.78 12.768C149.095 11.4613 151.746 10.808 154.732 10.808C157.644 10.808 160.22 11.4427 162.46 12.712C164.7 13.9813 166.418 15.736 167.612 17.976C168.844 20.1787 169.46 22.68 169.46 25.48ZM164.196 24.416C164.196 22.4747 163.767 20.8133 162.908 19.432C162.05 18.0133 160.874 16.9493 159.38 16.24C157.924 15.4933 156.3 15.12 154.508 15.12C151.932 15.12 149.73 15.9413 147.9 17.584C146.108 19.2267 145.082 21.504 144.82 24.416H164.196ZM191.139 10.752C194.872 10.752 197.896 11.8907 200.211 14.168C202.526 16.408 203.683 19.656 203.683 23.912V42H198.643V24.64C198.643 21.5787 197.878 19.2453 196.347 17.64C194.816 15.9973 192.726 15.176 190.075 15.176C187.387 15.176 185.24 16.016 183.635 17.696C182.067 19.376 181.283 21.8213 181.283 25.032V42H176.187V11.312H181.283V15.68C182.291 14.112 183.654 12.8987 185.371 12.04C187.126 11.1813 189.048 10.752 191.139 10.752ZM210.103 26.544C210.103 23.408 210.738 20.664 212.007 18.312C213.277 15.9227 215.013 14.0747 217.215 12.768C219.455 11.4613 221.957 10.808 224.719 10.808C227.109 10.808 229.33 11.368 231.383 12.488C233.437 13.5707 235.005 15.008 236.087 16.8V0.559998H241.239V42H236.087V36.232C235.079 38.0613 233.586 39.5733 231.607 40.768C229.629 41.9253 227.314 42.504 224.663 42.504C221.938 42.504 219.455 41.832 217.215 40.488C215.013 39.144 213.277 37.2587 212.007 34.832C210.738 32.4053 210.103 29.6427 210.103 26.544ZM236.087 26.6C236.087 24.2853 235.621 22.2693 234.687 20.552C233.754 18.8347 232.485 17.528 230.879 16.632C229.311 15.6987 227.575 15.232 225.671 15.232C223.767 15.232 222.031 15.68 220.463 16.576C218.895 17.472 217.645 18.7787 216.711 20.496C215.778 22.2133 215.311 24.2293 215.311 26.544C215.311 28.896 215.778 30.9493 216.711 32.704C217.645 34.4213 218.895 35.7467 220.463 36.68C222.031 37.576 223.767 38.024 225.671 38.024C227.575 38.024 229.311 37.576 230.879 36.68C232.485 35.7467 233.754 34.4213 234.687 32.704C235.621 30.9493 236.087 28.9147 236.087 26.6Z" fill="#E2DDDA"/>
<path d="M276.933 2.968C281.189 2.968 284.866 3.77066 287.965 5.376C291.101 6.944 293.49 9.20266 295.133 12.152C296.813 15.1013 297.653 18.5733 297.653 22.568C297.653 26.5627 296.813 30.0347 295.133 32.984C293.49 35.896 291.101 38.136 287.965 39.704C284.866 41.2347 281.189 42 276.933 42H264.781V2.968H276.933ZM276.933 37.8C281.973 37.8 285.818 36.4747 288.469 33.824C291.119 31.136 292.445 27.384 292.445 22.568C292.445 17.7147 291.101 13.9253 288.413 11.2C285.762 8.47467 281.935 7.112 276.933 7.112H269.877V37.8H276.933ZM309.471 7.112V20.16H323.695V24.36H309.471V37.8H325.375V42H304.375V2.912H325.375V7.112H309.471ZM345.461 42.392C342.885 42.392 340.571 41.944 338.517 41.048C336.501 40.1147 334.915 38.8453 333.757 37.24C332.6 35.5973 332.003 33.712 331.965 31.584H337.397C337.584 33.4133 338.331 34.9627 339.637 36.232C340.981 37.464 342.923 38.08 345.461 38.08C347.888 38.08 349.792 37.4827 351.173 36.288C352.592 35.056 353.301 33.488 353.301 31.584C353.301 30.0907 352.891 28.8773 352.069 27.944C351.248 27.0107 350.221 26.3013 348.989 25.816C347.757 25.3307 346.096 24.808 344.005 24.248C341.429 23.576 339.357 22.904 337.789 22.232C336.259 21.56 334.933 20.5147 333.813 19.096C332.731 17.64 332.189 15.6987 332.189 13.272C332.189 11.144 332.731 9.25866 333.813 7.616C334.896 5.97333 336.408 4.704 338.349 3.808C340.328 2.912 342.587 2.464 345.125 2.464C348.784 2.464 351.771 3.37867 354.085 5.208C356.437 7.03733 357.763 9.464 358.061 12.488H352.461C352.275 10.9947 351.491 9.688 350.109 8.568C348.728 7.41067 346.899 6.832 344.621 6.832C342.493 6.832 340.757 7.392 339.413 8.512C338.069 9.59467 337.397 11.1253 337.397 13.104C337.397 14.5227 337.789 15.68 338.573 16.576C339.395 17.472 340.384 18.1627 341.541 18.648C342.736 19.096 344.397 19.6187 346.525 20.216C349.101 20.9253 351.173 21.6347 352.741 22.344C354.309 23.016 355.653 24.08 356.773 25.536C357.893 26.9547 358.453 28.896 358.453 31.36C358.453 33.264 357.949 35.056 356.941 36.736C355.933 38.416 354.44 39.7787 352.461 40.824C350.483 41.8693 348.149 42.392 345.461 42.392ZM371.049 2.968V42H365.953V2.968H371.049ZM409.302 14.28C408.219 12.0027 406.651 10.248 404.598 9.016C402.545 7.74666 400.155 7.112 397.43 7.112C394.705 7.112 392.241 7.74666 390.038 9.016C387.873 10.248 386.155 12.04 384.886 14.392C383.654 16.7067 383.038 19.3947 383.038 22.456C383.038 25.5173 383.654 28.2053 384.886 30.52C386.155 32.8347 387.873 34.6267 390.038 35.896C392.241 37.128 394.705 37.744 397.43 37.744C401.238 37.744 404.374 36.6053 406.838 34.328C409.302 32.0507 410.739 28.9707 411.15 25.088L390.038 25.816L395.582 20.944H416.582V24.864C416.283 28.0747 415.275 31.024 413.558 33.712C411.841 36.3627 409.582 38.472 406.782 40.04C403.982 41.5707 400.865 42.336 397.43 42.336C393.809 42.336 390.505 41.496 387.518 39.816C384.531 38.0987 382.161 35.728 380.406 32.704C378.689 29.68 377.83 26.264 377.83 22.456C377.83 18.648 378.689 15.232 380.406 12.208C382.161 9.14667 384.531 6.776 387.518 5.096C390.505 3.37866 393.809 2.52 397.43 2.52C401.574 2.52 405.233 3.54666 408.406 5.6C411.617 7.65333 413.95 10.5467 415.406 14.28H409.302ZM454.008 42H448.912L428.416 10.92V42H423.32V2.912H428.416L448.912 33.936V2.912H454.008V42ZM475.071 42.392C472.495 42.392 470.18 41.944 468.127 41.048C466.111 40.1147 464.524 38.8453 463.367 37.24C462.209 35.5973 461.612 33.712 461.575 31.584H467.007C467.193 33.4133 467.94 34.9627 469.247 36.232C470.591 37.464 472.532 38.08 475.071 38.08C477.497 38.08 479.401 37.4827 480.783 36.288C482.201 35.056 482.911 33.488 482.911 31.584C482.911 30.0907 482.5 28.8773 481.679 27.944C480.857 27.0107 479.831 26.3013 478.599 25.816C477.367 25.3307 475.705 24.808 473.615 24.248C471.039 23.576 468.967 22.904 467.399 22.232C465.868 21.56 464.543 20.5147 463.423 19.096C462.34 17.64 461.799 15.6987 461.799 13.272C461.799 11.144 462.34 9.25866 463.423 7.616C464.505 5.97333 466.017 4.704 467.959 3.808C469.937 2.912 472.196 2.464 474.735 2.464C478.393 2.464 481.38 3.37867 483.695 5.208C486.047 7.03733 487.372 9.464 487.671 12.488H482.071C481.884 10.9947 481.1 9.688 479.719 8.568C478.337 7.41067 476.508 6.832 474.231 6.832C472.103 6.832 470.367 7.392 469.023 8.512C467.679 9.59467 467.007 11.1253 467.007 13.104C467.007 14.5227 467.399 15.68 468.183 16.576C469.004 17.472 469.993 18.1627 471.151 18.648C472.345 19.096 474.007 19.6187 476.135 20.216C478.711 20.9253 480.783 21.6347 482.351 22.344C483.919 23.016 485.263 24.08 486.383 25.536C487.503 26.9547 488.063 28.896 488.063 31.36C488.063 33.264 487.559 35.056 486.551 36.736C485.543 38.416 484.049 39.7787 482.071 40.824C480.092 41.8693 477.759 42.392 475.071 42.392Z" fill="#F2A365"/>
</svg>
